<svg xmlns="http://www.w3.org/2000/svg" width="128" height="128" viewBox="0 0 128 128">
  <title>Vertere</title>
  <defs>
    <linearGradient id="base" x1="0" y1="0" x2="0" y2="1">
      <stop offset="0" stop-color="#2b7a78"/>
      <stop offset="1" stop-color="#1d5654"/>
    </linearGradient>
  </defs>

  <rect x="8" y="8" width="112" height="112" rx="26" fill="url(#base)"/>

  <!-- The 文/A translate glyph: a script character and a letter, which says
       "two writing systems" without needing colour or depth to read. Drawn on a
       1024 grid, scaled into a 76px square and centred. -->
  <g transform="translate(26 26) scale(0.07421875)" fill="#f4f1ea">
    <path d="M547.797333 638.208l-104.405333-103.168 1.237333-1.28a720.170667 720.170667 0 0 0 152.490667-268.373333h120.448V183.082667h-287.744V100.906667H347.605333v82.218666H59.818667V265.386667h459.178666a648.234667 648.234667 0 0 1-130.304 219.946666 643.242667 643.242667 0 0 1-94.976-137.728H211.541333a722.048 722.048 0 0 0 122.453334 187.434667l-209.194667 206.378667 58.368 58.368 205.525333-205.525334 127.872 127.829334 31.232-83.84m231.424-208.426667h-82.218666l-184.96 493.312h82.218666l46.037334-123.306667h195.242666l46.464 123.306667h82.218667l-185.002667-493.312m-107.690666 287.744l66.56-178.005333 66.602666 178.005333z"/>
  </g>
</svg>
